<svg id="Group_7289" data-name="Group 7289" xmlns="http://www.w3.org/2000/svg" width="51.177" height="51.177" viewBox="0 0 51.177 51.177">
  <path id="Path_18124" data-name="Path 18124" d="M109.861,263.607A24.864,24.864,0,0,1,85.1,240.936q-.094,1.083-.1,2.19a24.861,24.861,0,1,0,49.723,0q0-1.107-.1-2.19A24.864,24.864,0,0,1,109.861,263.607Z" transform="translate(-84.273 -217.538)" fill="rgba(0,0,0,0.1)"/>
  <path id="Path_18125" data-name="Path 18125" d="M131.177,105.588a25.464,25.464,0,0,0-5.493-15.823c-.006-.01-.01-.022-.016-.032a.717.717,0,0,0-.127-.145,25.555,25.555,0,0,0-39.9,0,.721.721,0,0,0-.127.145c-.007.01-.01.022-.016.032a25.538,25.538,0,0,0,0,31.648c.006.01.009.021.016.031a.729.729,0,0,0,.125.144,25.555,25.555,0,0,0,39.9.007.721.721,0,0,0,.131-.151c.006-.01.01-.02.015-.03a25.462,25.462,0,0,0,5.495-15.825Zm-13.721,8.658a.728.728,0,0,0-.859.564c-.136.654-.286,1.29-.449,1.911a46.621,46.621,0,0,0-10.546-1.176h-.013a46.637,46.637,0,0,0-10.559,1.177q-.241-.923-.445-1.892a.727.727,0,0,0-1.424.3q.208,1,.457,1.954a29.6,29.6,0,0,0-7.308,3.011,24,24,0,0,1-4.838-13.774h10.31a.727.727,0,0,0,0-1.454H81.472A24,24,0,0,1,86.31,91.087a29.6,29.6,0,0,0,7.308,3.01q-.247.953-.457,1.954a.727.727,0,0,0,1.424.3q.2-.971.445-1.892a46.635,46.635,0,0,0,10.559,1.177h.013a46.624,46.624,0,0,0,10.546-1.177q.23.879.425,1.8a.727.727,0,1,0,1.423-.3q-.2-.953-.437-1.86a29.594,29.594,0,0,0,7.307-3.01,24,24,0,0,1,4.838,13.774h-10.31a.727.727,0,1,0,0,1.454H129.7a24,24,0,0,1-4.838,13.774,29.594,29.594,0,0,0-7.308-3.011q.25-.962.461-1.973a.728.728,0,0,0-.565-.859Zm-12.582,15.427c-3.852-.491-7.418-4.9-9.449-11.553a44.931,44.931,0,0,1,9.449-1.11Zm1.454,0V117.009a44.932,44.932,0,0,1,9.426,1.11c-2.027,6.637-5.582,11.046-9.426,11.551Zm0-48.164c3.84.506,7.4,4.916,9.427,11.551a44.921,44.921,0,0,1-9.427,1.11Zm-1.454,0V94.168a44.933,44.933,0,0,1-9.449-1.11C97.454,86.407,101.021,81.994,104.873,81.5Zm19.072,8.442a28.385,28.385,0,0,1-6.778,2.756c-1.454-4.822-3.671-8.527-6.3-10.659A24.152,24.152,0,0,1,123.945,89.946Zm-23.641-7.9c-2.626,2.131-4.842,5.835-6.3,10.657a28.367,28.367,0,0,1-6.777-2.756A24.153,24.153,0,0,1,100.3,82.044ZM87.232,121.231a28.392,28.392,0,0,1,6.777-2.756c1.453,4.822,3.669,8.526,6.3,10.658a24.151,24.151,0,0,1-13.072-7.9Zm23.642,7.9c2.626-2.131,4.841-5.835,6.294-10.657a28.364,28.364,0,0,1,6.777,2.756,24.154,24.154,0,0,1-13.072,7.9Z" transform="translate(-80 -80)" fill="#fff"/>
  <g id="Group_7289-2" data-name="Group 7289" transform="translate(14.539 17.084)">
    <path id="Path_18126" data-name="Path 18126" d="M202.987,228.982h1.336V220.5H198.86a.6.6,0,0,0-.6.6v7.281a.6.6,0,0,0,.6.6H199.9l2.208,4.522a1.18,1.18,0,0,0,2.171-.917Z" transform="translate(-195.605 -217.157)" fill="#fff"/>
    <path id="Path_18127" data-name="Path 18127" d="M254.758,197.544l-8.036,2.958v9.178l8.036,2.958a.6.6,0,0,0,.808-.564V198.107A.6.6,0,0,0,254.758,197.544Z" transform="translate(-237.021 -197.506)" fill="#fff"/>
    <path id="Path_18128" data-name="Path 18128" d="M180,239.075V240.7a.851.851,0,0,0,.851.851h.827v-3.322h-.827A.851.851,0,0,0,180,239.075Z" transform="translate(-180 -232.304)" fill="#fff"/>
    <path id="Path_18129" data-name="Path 18129" d="M314.274,231.6v5.254a2.577,2.577,0,0,0,2.577-2.577v-.1a2.577,2.577,0,0,0-2.577-2.577Z" transform="translate(-294.752 -226.643)" fill="#fff"/>
  </g>
</svg>
