<svg id="_2" data-name="2" xmlns="http://www.w3.org/2000/svg" width="47.167" height="47.167" viewBox="0 0 47.167 47.167">
  <path id="Path_18105" data-name="Path 18105" d="M141.317,76.2a22.7,22.7,0,0,1,.13-2.406,22.456,22.456,0,0,0,44.653,0,22.452,22.452,0,0,1-22.327,24.863,22.353,22.353,0,0,1-12.619-3.88h0L141.8,98.115l6.6-5.554A22.388,22.388,0,0,1,141.317,76.2Z" transform="translate(-140.19 -52.615)" fill="rgba(0,0,0,0.1)"/>
  <path id="Path_18107" data-name="Path 18107" d="M162.4,26.812a23.586,23.586,0,0,0-19.88,36.274l-3.156,8.846a1.127,1.127,0,0,0,1.44,1.44l8.826-3.149A23.584,23.584,0,1,0,162.4,26.812Zm0,44.913a21.219,21.219,0,0,1-11.985-3.685,1.125,1.125,0,0,0-1.012-.129l-7.118,2.54,2.545-7.135a1.126,1.126,0,0,0-.127-1.009,21.331,21.331,0,1,1,17.7,9.418Z" transform="translate(-138.817 -26.812)" fill="#fff"/>
  <g id="Group_7288" data-name="Group 7288" transform="translate(11.462 7.309)">
    <path id="Path_18114" data-name="Path 18114" d="M338.972,202.63h-3.449a.8.8,0,0,0-.8.8v1.436a2.529,2.529,0,1,0,5.059,0v-1.436A.8.8,0,0,0,338.972,202.63Z" transform="translate(-325.085 -179.703)" fill="#fff"/>
    <path id="Path_18115" data-name="Path 18115" d="M344.69,171.286a.322.322,0,0,0,.322-.322v-7.08a.424.424,0,1,0-.848,0v7.08a.322.322,0,0,0,.322.322Z" transform="translate(-332.426 -149.263)" fill="#fff"/>
    <path id="Path_18116" data-name="Path 18116" d="M328.517,129.212a7.032,7.032,0,1,0-12.036,5.849,7.108,7.108,0,0,1,1.994,4.6.321.321,0,0,0,.642-.009v-8.3a4.222,4.222,0,0,1-.464-.395,1.006,1.006,0,0,1,.094-1.506,1.025,1.025,0,0,1,1.334.089,2.158,2.158,0,0,0,2.214.511,2.409,2.409,0,0,0,.85-.553,1.006,1.006,0,0,1,1.444.1,1.048,1.048,0,0,1-.12,1.415,4.258,4.258,0,0,1-.482.394v8.246a.321.321,0,0,0,.642.009,7.142,7.142,0,0,1,2-4.6,7.02,7.02,0,0,0,1.885-5.839Z" transform="translate(-309.391 -117.946)" fill="#fff"/>
    <path id="Path_18117" data-name="Path 18117" d="M388.192,150.96H386.34a.75.75,0,0,0,0,1.5h1.852a.75.75,0,0,0,0-1.5Z" transform="translate(-364.619 -139.549)" fill="#fff"/>
    <path id="Path_18118" data-name="Path 18118" d="M294.1,150.96H292.25a.75.75,0,1,0,0,1.5H294.1a.75.75,0,1,0,0-1.5Z" transform="translate(-291.5 -139.549)" fill="#fff"/>
    <path id="Path_18119" data-name="Path 18119" d="M343.45,103.115a.75.75,0,0,0,.75-.75v-1.852a.75.75,0,0,0-1.5,0v1.852A.751.751,0,0,0,343.45,103.115Z" transform="translate(-331.288 -99.762)" fill="#fff"/>
    <path id="Path_18120" data-name="Path 18120" d="M374.309,117.349l1.31-1.31a.75.75,0,0,0-1.061-1.061l-1.31,1.31a.75.75,0,0,0,1.061,1.061Z" transform="translate(-354.857 -111.416)" fill="#fff"/>
    <path id="Path_18121" data-name="Path 18121" d="M308.026,181.508l-1.31,1.31a.75.75,0,0,0,1.061,1.061l1.31-1.31a.75.75,0,0,0-1.061-1.061Z" transform="translate(-303.154 -163.118)" fill="#fff"/>
    <path id="Path_18122" data-name="Path 18122" d="M374.309,181.508a.75.75,0,0,0-1.061,1.061l1.31,1.31a.75.75,0,0,0,1.061-1.061Z" transform="translate(-354.857 -163.118)" fill="#fff"/>
    <path id="Path_18123" data-name="Path 18123" d="M308.026,117.349a.75.75,0,0,0,1.061-1.061l-1.31-1.31a.75.75,0,0,0-1.061,1.061Z" transform="translate(-303.154 -111.416)" fill="#fff"/>
  </g>
</svg>
