<svg id="_2" data-name="2" xmlns="http://www.w3.org/2000/svg" width="47.167" height="47.167" viewBox="0 0 47.167 47.167">
  <path id="Path_18105" data-name="Path 18105" d="M141.317,76.2a22.7,22.7,0,0,1,.13-2.406,22.456,22.456,0,0,0,44.653,0,22.452,22.452,0,0,1-22.327,24.863,22.353,22.353,0,0,1-12.619-3.88h0L141.8,98.115l6.6-5.554A22.388,22.388,0,0,1,141.317,76.2Z" transform="translate(-140.19 -52.615)" fill="rgba(0,0,0,0.1)"/>
  <path id="Path_18107" data-name="Path 18107" d="M162.4,26.812a23.586,23.586,0,0,0-19.88,36.274l-3.156,8.846a1.127,1.127,0,0,0,1.44,1.44l8.826-3.149A23.584,23.584,0,1,0,162.4,26.812Zm0,44.913a21.219,21.219,0,0,1-11.985-3.685,1.125,1.125,0,0,0-1.012-.129l-7.118,2.54,2.545-7.135a1.126,1.126,0,0,0-.127-1.009,21.331,21.331,0,1,1,17.7,9.418Z" transform="translate(-138.817 -26.812)" fill="#fff"/>
  <path id="Path_18113" data-name="Path 18113" d="M182.13,56.958a3.809,3.809,0,0,0-3.371,5.59l-4.395,4.395a3.794,3.794,0,0,0-3.559-.006l-1.094-1.094a3.813,3.813,0,1,0-6.759-.035l-1.322,1.322a3.82,3.82,0,1,0,1.593,1.593l1.3-1.3a3.8,3.8,0,0,0,3.591.017l1.091,1.091a3.813,3.813,0,1,0,6.743.014l4.4-4.4a3.812,3.812,0,1,0,1.777-7.184Zm-22.276,15.1a1.559,1.559,0,1,1,1.033-2.717c.019.023.035.047.056.069s.046.037.069.056a1.552,1.552,0,0,1-1.158,2.592Zm4.929-7.992a1.559,1.559,0,1,1,1.559,1.559A1.56,1.56,0,0,1,164.783,64.067Zm7.8,7.8a1.559,1.559,0,1,1,1.559-1.559A1.56,1.56,0,0,1,172.579,71.868Zm9.551-9.538a1.559,1.559,0,1,1,1.559-1.559A1.561,1.561,0,0,1,182.13,62.33Z" transform="translate(-148.277 -43.369)" fill="#fff"/>
</svg>
