<svg id="_1" data-name="1" xmlns="http://www.w3.org/2000/svg" width="52.832" height="40.951" viewBox="0 0 52.832 40.951">
  <g id="Group_7286" data-name="Group 7286" transform="translate(0.638 9.183)">
    <path id="Path_18084" data-name="Path 18084" d="M61.787,145.789a1.967,1.967,0,1,1,2.782,2.782l1.68-1.679a1.962,1.962,0,0,1,1.4-.576L57.735,136.4l-2.315,2.315,3.6,3.6,2.241,4Z" transform="translate(-48.167 -128.485)" fill="rgba(0,0,0,0.1)"/>
    <path id="Path_18085" data-name="Path 18085" d="M133.9,208.105l-.978-.978-.075.1a1.968,1.968,0,0,1-2.146,2.76l-.213.274.63.63a1.967,1.967,0,1,0,2.782-2.783Z" transform="translate(-104.071 -181.16)" fill="rgba(0,0,0,0.1)"/>
    <path id="Path_18086" data-name="Path 18086" d="M143.7,202.067l-.074.018a1.587,1.587,0,0,0-1.02.835,1.969,1.969,0,0,1-.44.563,2.013,2.013,0,0,1-2.744-.129l-.2-.2h0l1.7,1.695a1.968,1.968,0,0,0,2.783-2.783Z" transform="translate(-110.579 -177.391)" fill="rgba(0,0,0,0.1)"/>
    <path id="Path_18087" data-name="Path 18087" d="M156.644,192.48l-.1.018a1.33,1.33,0,0,0-.958.766,1.969,1.969,0,0,1-3.17.552l2.262,2.262a1.153,1.153,0,0,0,1.968-.815,1.967,1.967,0,0,0,0-2.782Z" transform="translate(-120.405 -170.251)" fill="rgba(0,0,0,0.1)"/>
    <path id="Path_18088" data-name="Path 18088" d="M167.637,183.967l-.042,0a1.276,1.276,0,0,0-1.009.762,1.966,1.966,0,0,1-.428.6,2.018,2.018,0,0,1-2.8-.084l-.733-.733,2.176,2.176a2.022,2.022,0,0,0,2.8.1A1.967,1.967,0,0,0,167.637,183.967Z" transform="translate(-128.006 -163.911)" fill="rgba(0,0,0,0.1)"/>
    <path id="Path_18089" data-name="Path 18089" d="M91.021,184.089l-.085.085Z" transform="translate(-74.618 -164.002)" fill="rgba(0,0,0,0.1)"/>
    <path id="Path_18090" data-name="Path 18090" d="M75.615,176.306a1.967,1.967,0,0,1-2.783-2.782l-1.892,1.892a1.967,1.967,0,0,0,2.782,2.782Z" transform="translate(-59.297 -156.133)" fill="rgba(0,0,0,0.1)"/>
    <path id="Path_18091" data-name="Path 18091" d="M104.988,209.768a1.968,1.968,0,0,1-.066-2.713c-.024.021-.047.044-.07.067l-1.756,1.756a1.967,1.967,0,1,0,2.782,2.782l1.756-1.756c.023-.023.045-.046.067-.07A1.967,1.967,0,0,1,104.988,209.768Z" transform="translate(-83.245 -181.106)" fill="rgba(0,0,0,0.1)"/>
    <path id="Path_18092" data-name="Path 18092" d="M84.2,189.53a1.967,1.967,0,0,1-2.782-2.782l-1.892,1.892a1.967,1.967,0,0,0,2.782,2.782Z" transform="translate(-65.688 -165.982)" fill="rgba(0,0,0,0.1)"/>
    <path id="Path_18093" data-name="Path 18093" d="M96.553,194.734h0L95.1,196.189a1.967,1.967,0,1,1-2.782-2.782l1.454-1.454L90.424,195.3a1.967,1.967,0,0,0,2.782,2.782Z" transform="translate(-73.807 -169.858)" fill="rgba(0,0,0,0.1)"/>
    <path id="Path_18094" data-name="Path 18094" d="M38.312,111.56l-5.007,5.007a.449.449,0,0,1-.635,0l-5.538-5.538a.449.449,0,0,1,0-.635l5.007-5.007Z" transform="translate(-27.001 -105.387)" fill="rgba(0,0,0,0.1)"/>
    <path id="Path_18095" data-name="Path 18095" d="M193.31,117.373l-3.766-3.766,6.173-6.173,3.766,3.766a.449.449,0,0,1,0,.635l-5.538,5.538A.449.449,0,0,1,193.31,117.373Z" transform="translate(-148.058 -106.912)" fill="rgba(0,0,0,0.1)"/>
    <path id="Path_18096" data-name="Path 18096" d="M167.831,132.27l-.649-.649-7.663,7.663,3.653,3.653,3.714-5.733,2.94-2.94Z" transform="translate(-125.696 -124.925)" fill="rgba(0,0,0,0.1)"/>
  </g>
  <path id="Path_18097" data-name="Path 18097" d="M77.015,82.427l-12.7-12.7a1.087,1.087,0,0,0-1.538,0l-5.538,5.538a1.087,1.087,0,0,0,0,1.537l.311.311L54.366,80.3h-4.1a2.721,2.721,0,0,0-1.829.7l-2.03-.656-2.314-2.314.509-.509a1.087,1.087,0,0,0,0-1.538l-5.538-5.538a1.087,1.087,0,0,0-1.538,0l-12.7,12.7a1.088,1.088,0,0,0,0,1.537l5.538,5.538a1.088,1.088,0,0,0,1.538,0l.5-.5,3.086,3.086L36.6,94.815a.638.638,0,1,0,1.113-.624l-1.167-2.082a.631.631,0,0,0-.106-.139l-3.149-3.149,9.89-9.89,2.422,2.422a.638.638,0,0,0,.255.156l1.548.5L42.889,86.53a2.631,2.631,0,1,0,3.7,3.742l4.4-4.4L62.163,97.053a.637.637,0,0,0,.451.187.594.594,0,0,0,.067,0,.639.639,0,0,0,.468-.288l3.677-5.677,2.441-2.441.672.672a1.088,1.088,0,0,0,1.537,0l5.538-5.538a1.087,1.087,0,0,0,0-1.538Zm-51.16,1.487L38.29,71.48l5.27,5.271L31.126,89.185Zm42.51,4.014-2.488,2.489a.636.636,0,0,0-.084.1l-3.285,5.071L51.436,84.521a.638.638,0,0,0-.9,0L45.685,89.37a1.356,1.356,0,0,1-2.093-.217,1.365,1.365,0,0,1,.2-1.72L49.224,82a1.459,1.459,0,0,1,1.038-.43H54.63a.638.638,0,0,0,.451-.187l3.37-3.37Zm2.343.538-6.314-6.314L58.9,76.661h0l-.628-.628,5.271-5.271L75.979,83.2Z" transform="translate(-24.501 -69.407)" fill="#fff"/>
  <path id="Path_18098" data-name="Path 18098" d="M81,177.21a2.6,2.6,0,0,0-1.738-3.942,2.6,2.6,0,0,0-4.191-2.967l-.1.1a2.6,2.6,0,0,0-4.364-1.2l-1.977,1.977a2.6,2.6,0,0,0,1.55,4.429A2.6,2.6,0,0,0,72.663,179c.063,0,.125,0,.187-.009a2.595,2.595,0,0,0,3.233,2.71,2.6,2.6,0,0,0,4.438,1.651l1.756-1.756a2.609,2.609,0,0,0,0-3.685,2.581,2.581,0,0,0-1.278-.7Zm-11.466-5.132L71.51,170.1a1.329,1.329,0,1,1,1.88,1.88l-1.977,1.977a1.329,1.329,0,1,1-1.88-1.88Zm2.19,5.255a1.33,1.33,0,0,1,0-1.88l4.25-4.25a1.329,1.329,0,0,1,1.88,1.88l-4.25,4.25A1.331,1.331,0,0,1,71.723,177.333Zm2.783,2.783a1.331,1.331,0,0,1,0-1.88l3.347-3.347a1.329,1.329,0,0,1,1.88,1.88l-3.347,3.347A1.331,1.331,0,0,1,74.506,180.116Zm6.87.575-1.756,1.756a1.329,1.329,0,0,1-1.88-1.88L79.5,178.81a1.33,1.33,0,0,1,1.88,1.88Z" transform="translate(-56.8 -143.161)" fill="#fff"/>
  <path id="Path_18099" data-name="Path 18099" d="M141.388,181.654a.638.638,0,0,0,0,.9,1.329,1.329,0,1,1-1.88,1.88l-2.234-2.234a.638.638,0,0,0-.9.9L138,184.728h0a1.329,1.329,0,1,1-1.88,1.88l-1.942-1.942a.638.638,0,0,0-.9.9l1.6,1.6h0a1.329,1.329,0,1,1-1.88,1.88l-1.7-1.695a.638.638,0,1,0-.9.9l.2.2.978.978a1.329,1.329,0,0,1-1.88,1.88l-.63-.63a.638.638,0,0,0-.9.9l.63.63a2.6,2.6,0,0,0,4.435-1.6,2.618,2.618,0,0,0,.7.1,2.6,2.6,0,0,0,2.6-2.5,2.633,2.633,0,0,0,.519.053,2.6,2.6,0,0,0,2.585-2.3,2.605,2.605,0,0,0,2.65-4.319A.638.638,0,0,0,141.388,181.654Z" transform="translate(-101.57 -152.866)" fill="#fff"/>
</svg>
