<svg id="Group_7291" data-name="Group 7291" xmlns="http://www.w3.org/2000/svg" width="50" height="43.835" viewBox="0 0 50 43.835">
  <path id="Path_18130" data-name="Path 18130" d="M118.175,101.048l-1.709-2.682,1.709-2.682h1.354a21.332,21.332,0,1,0,0,5.364Zm-32.391,9.9a17.794,17.794,0,1,1,25.164,0A17.794,17.794,0,0,1,85.784,110.949Z" transform="translate(-76.448 -76.449)" fill="#026fb0"/>
  <path id="Path_18131" data-name="Path 18131" d="M162.809,143.084a13.946,13.946,0,1,0,0,19.722A13.946,13.946,0,0,0,162.809,143.084Zm-16.66,16.66a9.615,9.615,0,1,1,13.6,0,9.615,9.615,0,0,1-13.6,0Z" transform="translate(-131.03 -131.027)" fill="#026fb0"/>
  <circle id="Ellipse_88" data-name="Ellipse 88" cx="6.079" cy="6.079" r="6.079" transform="translate(15.839 15.839)" fill="#05aafa"/>
  <g id="Group_7290" data-name="Group 7290">
    <path id="Path_18132" data-name="Path 18132" d="M114.914,98.466a.6.6,0,0,0-.719.44,20.729,20.729,0,1,1,.012-9.689.6.6,0,1,0,1.16-.276,21.918,21.918,0,1,0-.012,10.243A.6.6,0,0,0,114.914,98.466Z" transform="translate(-72.118 -72.119)" fill="#fff"/>
    <path id="Path_18133" data-name="Path 18133" d="M148.592,135.192a13.352,13.352,0,0,1,13.157,11.084.6.6,0,0,0,1.175-.2,14.54,14.54,0,1,0,0,4.91.6.6,0,1,0-1.175-.2,13.351,13.351,0,1,1-13.161-15.593Z" transform="translate(-126.675 -126.624)" fill="#fff"/>
    <path id="Path_18134" data-name="Path 18134" d="M264.453,231l1.5-2.362a.6.6,0,0,0-.5-.916h-7.678a.6.6,0,0,0-.5.276l-1.533,2.406H237.563l1.77-1.77a.6.6,0,0,0-.843-.843l-2.787,2.788a.6.6,0,0,0,0,.843l2.787,2.788a.6.6,0,1,0,.843-.843l-1.77-1.77h18.179L257.275,234a.6.6,0,0,0,.5.276h7.678a.6.6,0,0,0,.5-.916Zm-6.349-2.086h6.264l-.949,1.49h-6.264Zm0,4.172-.949-1.49h6.264l.949,1.49Z" transform="translate(-216.051 -209.08)" fill="#fff"/>
  </g>
</svg>
