<svg id="Apple_Watch_Health_App" data-name="Apple Watch, Health, App" xmlns="http://www.w3.org/2000/svg" width="32" height="32" viewBox="0 0 32 32">
  <path id="Path_18323" data-name="Path 18323" d="M0,0H32V32H0Z" fill="none"/>
  <path id="Path_18324" data-name="Path 18324" d="M8.112,21.167H20.557a3.008,3.008,0,0,0,3.111-2.892V9.392A3.009,3.009,0,0,0,20.556,6.5H8.112A3.008,3.008,0,0,0,5,9.392v8.881a3,3,0,0,0,3.111,2.893Z" transform="translate(1.667 2.167)" fill="none" stroke="#0048de" stroke-linecap="round" stroke-linejoin="round" stroke-width="2"/>
  <path id="Path_18325" data-name="Path 18325" d="M9.879,10.172a4,4,0,1,1,0,5.656" transform="translate(3.293 3)" fill="none" stroke="#0048de" stroke-linecap="round" stroke-linejoin="round" stroke-width="2"/>
  <path id="Path_18326" data-name="Path 18326" d="M12.181,11.913a.189.189,0,1,1-.268,0,.189.189,0,0,1,.268,0" transform="translate(3.953 3.953)" fill="none" stroke="#0048de" stroke-linecap="round" stroke-linejoin="round" stroke-width="2"/>
  <path id="Path_18327" data-name="Path 18327" d="M19.5,7.667,18.808,5a2.667,2.667,0,0,0-2.581-2H10.773A2.667,2.667,0,0,0,8.192,5L7.5,7.667" transform="translate(2.5 1)" fill="none" stroke="#0048de" stroke-linecap="round" stroke-linejoin="round" stroke-width="2"/>
  <path id="Path_18328" data-name="Path 18328" d="M7.5,17.5l.692,2.669a2.667,2.667,0,0,0,2.581,2h5.452a2.667,2.667,0,0,0,2.581-2L19.5,17.5" transform="translate(2.5 5.833)" fill="none" stroke="#0048de" stroke-linecap="round" stroke-linejoin="round" stroke-width="2"/>
</svg>
