<svg id="Bag_Shopping_Square.1" data-name="Bag, Shopping, Square.1" xmlns="http://www.w3.org/2000/svg" width="32" height="32" viewBox="0 0 32 32">
  <g id="Group_7335" data-name="Group 7335" transform="translate(4 4)">
    <path id="Path_18309" data-name="Path 18309" d="M15.292,10.5V9.3a2.73,2.73,0,0,0-2.635-2.8,2.729,2.729,0,0,0-2.633,2.8v1.2" transform="translate(-0.659 -1.833)" fill="none" stroke="#0048de" stroke-linecap="round" stroke-linejoin="round" stroke-width="2"/>
    <path id="Path_18310" data-name="Path 18310" d="M17.676,9.5H9.433a1.333,1.333,0,0,0-1.327,1.207l-.764,8a1.332,1.332,0,0,0,1.327,1.46H18.44a1.332,1.332,0,0,0,1.327-1.46l-.764-8A1.333,1.333,0,0,0,17.676,9.5Z" transform="translate(-1.555 -0.833)" fill="none" stroke="#0048de" stroke-linecap="round" stroke-linejoin="round" stroke-width="2"/>
    <path id="Path_18311" data-name="Path 18311" d="M24.333,27H7a4,4,0,0,1-4-4V7A4,4,0,0,1,7,3H23a4,4,0,0,1,4,4V24.333A2.666,2.666,0,0,1,24.333,27Z" transform="translate(-3 -3)" fill="none" stroke="#0048de" stroke-linecap="round" stroke-linejoin="round" stroke-width="2"/>
  </g>
  <path id="Path_18312" data-name="Path 18312" d="M0,0H32V32H0Z" fill="none"/>
</svg>
