<svg id="Chef_Gear_Hat_Square_Circle" data-name="Chef, Gear, Hat, Square, Circle" xmlns="http://www.w3.org/2000/svg" width="32" height="32" viewBox="0 0 32 32">
  <path id="Path_18329" data-name="Path 18329" d="M0,0H32V32H0Z" fill="none"/>
  <path id="Path_18330" data-name="Path 18330" d="M0,0H32V32H0Z" fill="none"/>
  <path id="Path_18331" data-name="Path 18331" d="M0,0H32V32H0Z" fill="none"/>
  <path id="Path_18332" data-name="Path 18332" d="M15.833,28.667h0A13.333,13.333,0,0,1,2.5,15.333h0A13.333,13.333,0,0,1,15.833,2h0A13.333,13.333,0,0,1,29.167,15.333h0A13.333,13.333,0,0,1,15.833,28.667Z" transform="translate(0.833 0.667)" fill="none" stroke="#0048de" stroke-linecap="round" stroke-linejoin="round" stroke-width="2"/>
  <path id="Path_18333" data-name="Path 18333" d="M11.682,7.81a2.835,2.835,0,0,1,5.064,0,2.811,2.811,0,0,1,2.327-.285,2.856,2.856,0,0,1-.287,5.524v4.629a4.572,4.572,0,0,1-4.572,4.572h0a4.572,4.572,0,0,1-4.572-4.572V13.857a1.168,1.168,0,0,0-.681-1.04,2.855,2.855,0,0,1,.395-5.292,2.811,2.811,0,0,1,2.327.285Z" transform="translate(2.452 2.083)" fill="none" stroke="#0048de" stroke-linecap="round" stroke-linejoin="round" stroke-width="2"/>
  <path id="Path_18334" data-name="Path 18334" d="M18.217,13.11H9.07" transform="translate(3.023 4.37)" fill="none" stroke="#0048de" stroke-linecap="round" stroke-linejoin="round" stroke-width="2"/>
</svg>
