<svg id="Search_Graph_Traffic_Conversion" data-name="Search, Graph, Traffic, Conversion" xmlns="http://www.w3.org/2000/svg" width="32" height="32" viewBox="0 0 32 32">
  <path id="Path_18313" data-name="Path 18313" d="M0,0H32V32H0Z" fill="none"/>
  <path id="Path_18314" data-name="Path 18314" d="M13.125,15.374a2.241,2.241,0,1,1,0,.017Z" transform="translate(4.375 4.375)" fill="none" stroke="#0048de" stroke-linecap="round" stroke-linejoin="round" stroke-width="2"/>
  <path id="Path_18315" data-name="Path 18315" d="M14.7,14.7l-4.32-4.32" transform="translate(3.46 3.46)" fill="none" stroke="#0048de" stroke-linecap="round" stroke-linejoin="round" stroke-width="2"/>
  <path id="Path_18316" data-name="Path 18316" d="M16.01,14.7l4.307-4.32" transform="translate(5.337 3.46)" fill="none" stroke="#0048de" stroke-linecap="round" stroke-linejoin="round" stroke-width="2"/>
  <path id="Path_18317" data-name="Path 18317" d="M12,9.751a2.241,2.241,0,1,1,0-.019Z" transform="translate(2.5 2.5)" fill="none" stroke="#0048de" stroke-linecap="round" stroke-linejoin="round" stroke-width="2"/>
  <path id="Path_18318" data-name="Path 18318" d="M4.76,14.7l4.307-4.32" transform="translate(1.587 3.46)" fill="none" stroke="#0048de" stroke-linecap="round" stroke-linejoin="round" stroke-width="2"/>
  <path id="Path_18319" data-name="Path 18319" d="M23.25,9.75a2.434,2.434,0,1,1,0-.017A.07.07,0,0,1,23.25,9.75Z" transform="translate(6.25 2.5)" fill="none" stroke="#0048de" stroke-linecap="round" stroke-linejoin="round" stroke-width="2"/>
  <path id="Path_18320" data-name="Path 18320" d="M1.875,15.374a2.434,2.434,0,1,1,0,.017.07.07,0,0,1,0-.017Z" transform="translate(0.625 4.375)" fill="none" stroke="#0048de" stroke-linecap="round" stroke-linejoin="round" stroke-width="2"/>
  <path id="Path_18321" data-name="Path 18321" d="M3.119,16.6A12.2,12.2,0,0,1,3,15,12,12,0,0,1,25.471,9.147" transform="translate(1 1)" fill="none" stroke="#0048de" stroke-linecap="round" stroke-linejoin="round" stroke-width="2"/>
  <path id="Path_18322" data-name="Path 18322" d="M4.147,18.254A12,12,0,0,0,26.618,12.4a12.2,12.2,0,0,0-.119-1.6" transform="translate(1.382 3.6)" fill="none" stroke="#0048de" stroke-linecap="round" stroke-linejoin="round" stroke-width="2"/>
</svg>
