<svg id="User_Profile_Square.1" data-name="User, Profile, Square.1" xmlns="http://www.w3.org/2000/svg" width="32" height="32" viewBox="0 0 32 32">
  <path id="Path_18305" data-name="Path 18305" d="M.167,0H31.833A.167.167,0,0,1,32,.167V31.833a.167.167,0,0,1-.167.167H.167A.167.167,0,0,1,0,31.833V.167A.167.167,0,0,1,.167,0Z" fill="none"/>
  <path id="Path_18306" data-name="Path 18306" d="M21.777,24H10.223a.892.892,0,0,1-.889-.889v-.723a3.733,3.733,0,0,1,3.723-3.721h5.889a3.733,3.733,0,0,1,3.721,3.723v.723A.891.891,0,0,1,21.777,24Z" fill="none" stroke="#fff" stroke-linecap="round" stroke-linejoin="round" stroke-width="2"/>
  <path id="Path_18307" data-name="Path 18307" d="M16,15.333a3.667,3.667,0,1,1,3.667-3.681A3.668,3.668,0,0,1,16,15.333Z" fill="none" stroke="#fff" stroke-linecap="round" stroke-linejoin="round" stroke-width="2"/>
  <path id="Path_18308" data-name="Path 18308" d="M22.667,28H9.333A5.334,5.334,0,0,1,4,22.667V9.333A5.334,5.334,0,0,1,9.333,4H22.667A5.334,5.334,0,0,1,28,9.333V22.667A5.334,5.334,0,0,1,22.667,28Z" fill="none" stroke="#fff" stroke-linecap="round" stroke-linejoin="round" stroke-width="2"/>
</svg>
