<svg xmlns="http://www.w3.org/2000/svg" xmlns:xlink="http://www.w3.org/1999/xlink" width="1839.63" height="961.664" viewBox="0 0 1839.63 961.664">
  <defs>
    <linearGradient id="linear-gradient" y1="1" x2="1" gradientUnits="objectBoundingBox">
      <stop offset="0" stop-color="#fd5"/>
      <stop offset="0.031" stop-color="#fd5"/>
      <stop offset="0.27" stop-color="#ff543e"/>
      <stop offset="0.653" stop-color="#d63f8e"/>
      <stop offset="1" stop-color="#3771c8"/>
    </linearGradient>
  </defs>
  <g id="Campaign" transform="translate(104.63 -1685.136)">
    <path id="Path_18488" data-name="Path 18488" d="M6,0H1434a6,6,0,0,1,6,6V659a6,6,0,0,1-6,6H6a6,6,0,0,1-6-6V6A6,6,0,0,1,6,0Z" transform="translate(295 1819)" fill="#f4f4f4"/>
    <g id="shape-1" transform="translate(1158.496 2196.929)">
      <path id="Path_18165" data-name="Path 18165" d="M54.24-123.6l2.676,2.677-2.679,2.68-2.677-2.678Z" fill="#393939" fill-rule="evenodd"/>
      <path id="Path_18166" data-name="Path 18166" d="M29.137-98.5l2.677,2.677-2.68,2.68-2.676-2.678Z" fill="#0053ff" fill-rule="evenodd"/>
      <path id="Path_18167" data-name="Path 18167" d="M4.035-73.394l2.677,2.678-2.68,2.679L1.355-70.714Zm-25.1,25.1,2.677,2.677-2.679,2.68-2.677-2.678Z" fill="#393939" fill-rule="evenodd"/>
      <path id="Path_18168" data-name="Path 18168" d="M-45.816-23.543l2.677,2.678-2.68,2.679L-48.5-20.863Z" fill="#fff" fill-rule="evenodd" opacity="0.6"/>
      <path id="Path_18169" data-name="Path 18169" d="M177.345-246.929l2.677,2.677-2.679,2.68-2.677-2.678Z" fill="#ffbd45" fill-rule="evenodd"/>
      <path id="Path_18170" data-name="Path 18170" d="M152.243-221.827l2.677,2.678-2.68,2.679-2.676-2.677Z" fill="#393939" fill-rule="evenodd"/>
      <path id="Path_18171" data-name="Path 18171" d="M127.14-196.724l2.678,2.677-2.68,2.679-2.677-2.677Z" fill="#a4a4a4" fill-rule="evenodd"/>
      <path id="Path_18172" data-name="Path 18172" d="M102.038-171.622l2.677,2.677-2.679,2.68-2.677-2.678Zm-25.1,25.1,2.677,2.677-2.68,2.68-2.676-2.677Z" fill="#393939" fill-rule="evenodd"/>
      <path id="Path_18173" data-name="Path 18173" d="M79.023-98.814,81.7-96.137l-2.679,2.68-2.677-2.678Z" fill="#ff5f61" fill-rule="evenodd"/>
      <path id="Path_18174" data-name="Path 18174" d="M53.921-73.712,56.6-71.035l-2.68,2.68-2.676-2.678Z" fill="#393939" fill-rule="evenodd"/>
      <path id="Path_18175" data-name="Path 18175" d="M28.819-48.61,31.5-45.932l-2.68,2.679L26.139-45.93Z" fill="#a4a4a4" fill-rule="evenodd"/>
      <path id="Path_18176" data-name="Path 18176" d="M3.716-23.507,6.394-20.83l-2.68,2.68L1.037-20.828ZM-21.032,1.242l2.677,2.677L-21.035,6.6l-2.677-2.677ZM202.13-222.145l2.676,2.677-2.679,2.68-2.677-2.678Zm-25.1,25.1,2.677,2.678-2.68,2.679-2.676-2.677Zm-25.1,25.1,2.677,2.677-2.68,2.68-2.677-2.678Z" fill="#393939" fill-rule="evenodd"/>
      <path id="Path_18177" data-name="Path 18177" d="M126.822-146.838l2.677,2.677-2.679,2.68-2.677-2.678Z" fill="#ffbd45" fill-rule="evenodd"/>
      <path id="Path_18178" data-name="Path 18178" d="M101.72-121.736l2.677,2.677-2.68,2.68-2.676-2.677Zm2.087,47.706,2.677,2.677-2.679,2.68-2.677-2.678Zm-25.1,25.1,2.677,2.677L78.7-43.571l-2.677-2.677Zm-25.1,25.1,2.677,2.677L53.6-18.469l-2.676-2.677Z" fill="#393939" fill-rule="evenodd"/>
      <path id="Path_18179" data-name="Path 18179" d="M28.5,1.277l2.678,2.677L28.5,6.634,25.821,3.956Z" fill="#ffbd45" fill-rule="evenodd" opacity="0.5"/>
      <path id="Path_18180" data-name="Path 18180" d="M3.752,26.026,6.429,28.7l-2.68,2.679L1.073,28.7Z" fill="#393939" fill-rule="evenodd"/>
      <path id="Path_18181" data-name="Path 18181" d="M226.913-197.36l2.677,2.676L226.911-192l-2.677-2.677Z" fill="#a4a4a4" fill-rule="evenodd"/>
      <path id="Path_18182" data-name="Path 18182" d="M201.811-172.258l2.677,2.677-2.68,2.679-2.676-2.677Zm-25.1,25.1,2.677,2.677-2.68,2.68-2.677-2.678Zm-25.1,25.1,2.678,2.677-2.68,2.68-2.677-2.678Z" fill="#393939" fill-rule="evenodd"/>
      <path id="Path_18183" data-name="Path 18183" d="M126.5-96.952l2.677,2.678L126.5-91.6l-2.677-2.677Z" fill="#ff5f61" fill-rule="evenodd"/>
      <g id="Group_7318" data-name="Group 7318">
        <path id="Path_18184" data-name="Path 18184" d="M128.238-49.6l2.677,2.678-2.68,2.679-2.676-2.677Z" fill="#a4a4a4" fill-rule="evenodd"/>
        <path id="Path_18185" data-name="Path 18185" d="M103.136-24.5l2.677,2.677-2.68,2.68-2.677-2.678Z" fill="#393939" fill-rule="evenodd"/>
        <path id="Path_18186" data-name="Path 18186" d="M78.033.605,80.71,3.282l-2.679,2.68L75.354,3.284Z" fill="#0053ff" fill-rule="evenodd"/>
        <path id="Path_18187" data-name="Path 18187" d="M52.931,25.707l2.677,2.678-2.68,2.679-2.676-2.677Z" fill="#393939" fill-rule="evenodd"/>
        <path id="Path_18188" data-name="Path 18188" d="M28.182,50.456l2.677,2.677-2.679,2.68L25.5,53.135Z" fill="#ff5f61" fill-rule="evenodd"/>
        <path id="Path_18189" data-name="Path 18189" d="M251.7-172.577l2.677,2.677-2.679,2.68-2.677-2.677Z" fill="#393939" fill-rule="evenodd"/>
        <path id="Path_18190" data-name="Path 18190" d="M226.6-147.474l2.677,2.677-2.68,2.679-2.676-2.677Z" fill="#ffbd45" fill-rule="evenodd"/>
        <path id="Path_18191" data-name="Path 18191" d="M201.493-122.372l2.677,2.677-2.68,2.68-2.676-2.678Zm-25.1,25.1,2.678,2.677-2.68,2.68-2.677-2.678Zm-25.1,25.1,2.677,2.677-2.679,2.679-2.677-2.677Z" fill="#393939" fill-rule="evenodd"/>
      </g>
      <g id="Group_7319" data-name="Group 7319">
        <path id="Path_18192" data-name="Path 18192" d="M153.376-24.462l2.677,2.677-2.68,2.68L150.7-21.783Z" fill="#393939" fill-rule="evenodd"/>
        <path id="Path_18193" data-name="Path 18193" d="M128.273.64l2.677,2.678L128.271,6,125.594,3.32Z" fill="#ffbd45" fill-rule="evenodd"/>
        <path id="Path_18194" data-name="Path 18194" d="M103.171,25.743l2.677,2.677-2.68,2.68-2.676-2.678Zm-25.1,25.1,2.677,2.677-2.68,2.68-2.677-2.678ZM53.32,75.594,56,78.271l-2.68,2.68-2.676-2.678ZM276.392-147.882l2.677,2.677-2.679,2.68-2.677-2.677Z" fill="#393939" fill-rule="evenodd"/>
        <path id="Path_18195" data-name="Path 18195" d="M251.29-122.78l2.677,2.678-2.68,2.679-2.676-2.677Z" fill="#0053ff" fill-rule="evenodd"/>
        <path id="Path_18196" data-name="Path 18196" d="M226.188-97.677,228.865-95l-2.68,2.68L223.509-95Z" fill="#ff5f61" fill-rule="evenodd"/>
        <path id="Path_18197" data-name="Path 18197" d="M201.085-72.575l2.678,2.677-2.68,2.68L198.406-69.9Z" fill="#393939" fill-rule="evenodd"/>
        <path id="Path_18198" data-name="Path 18198" d="M175.983-47.472l2.677,2.677-2.679,2.679L173.3-44.793Z" fill="#0053ff" fill-rule="evenodd"/>
      </g>
      <g id="Group_7320" data-name="Group 7320">
        <path id="Path_18199" data-name="Path 18199" d="M178.16.322,180.837,3l-2.68,2.68L175.48,3Z" fill="#393939" fill-rule="evenodd"/>
        <path id="Path_18200" data-name="Path 18200" d="M153.057,25.425l2.677,2.677-2.679,2.679L150.378,28.1Z" fill="#0053ff" fill-rule="evenodd"/>
        <path id="Path_18201" data-name="Path 18201" d="M127.955,50.527l2.677,2.677-2.679,2.68-2.677-2.678Zm-25.1,25.1,2.677,2.676-2.68,2.68-2.676-2.678Z" fill="#393939" fill-rule="evenodd"/>
        <path id="Path_18202" data-name="Path 18202" d="M78.1,100.378l2.677,2.677-2.68,2.68-2.676-2.678Z" fill="#0053ff" fill-rule="evenodd"/>
        <path id="Path_18203" data-name="Path 18203" d="M301.221-123.053l2.677,2.677-2.68,2.68-2.676-2.678Z" fill="#ff5f61" fill-rule="evenodd"/>
        <path id="Path_18204" data-name="Path 18204" d="M276.119-97.95l2.677,2.676-2.68,2.68-2.677-2.677Z" fill="#393939" fill-rule="evenodd"/>
        <path id="Path_18205" data-name="Path 18205" d="M251.016-72.848l2.678,2.677-2.68,2.679-2.677-2.677Z" fill="#a4a4a4" fill-rule="evenodd"/>
        <path id="Path_18206" data-name="Path 18206" d="M225.914-47.746l2.677,2.677-2.679,2.68-2.677-2.678Zm-25.1,25.1,2.677,2.677-2.68,2.68-2.676-2.678Z" fill="#393939" fill-rule="evenodd"/>
      </g>
      <g id="Group_7321" data-name="Group 7321">
        <path id="Path_18207" data-name="Path 18207" d="M202.944,25.106l2.677,2.678-2.68,2.679-2.676-2.677Z" fill="#ff5f61" fill-rule="evenodd"/>
        <path id="Path_18208" data-name="Path 18208" d="M177.841,50.209l2.678,2.677-2.68,2.679-2.677-2.677Z" fill="#393939" fill-rule="evenodd"/>
        <path id="Path_18209" data-name="Path 18209" d="M152.74,75.311l2.676,2.677-2.679,2.68L150.06,77.99Z" fill="#a4a4a4" fill-rule="evenodd"/>
        <path id="Path_18210" data-name="Path 18210" d="M127.637,100.413l2.677,2.677-2.68,2.68-2.676-2.677Z" fill="#ff5f61" fill-rule="evenodd"/>
        <path id="Path_18211" data-name="Path 18211" d="M102.888,125.162l2.677,2.677-2.679,2.68-2.677-2.678ZM326.005-98.269l2.677,2.677L326-92.912l-2.677-2.678Zm-25.1,25.1,2.677,2.678L300.9-67.81l-2.676-2.677Zm-25.1,25.1,2.678,2.677-2.68,2.679-2.677-2.677Z" fill="#393939" fill-rule="evenodd"/>
        <path id="Path_18212" data-name="Path 18212" d="M250.7-22.962l2.677,2.677L250.7-17.6l-2.677-2.678Z" fill="#ffbd45" fill-rule="evenodd"/>
        <path id="Path_18213" data-name="Path 18213" d="M225.6,2.14l2.677,2.677-2.68,2.68L222.917,4.82Z" fill="#393939" fill-rule="evenodd"/>
      </g>
      <g id="Group_7322" data-name="Group 7322">
        <path id="Path_18214" data-name="Path 18214" d="M227.728,49.89l2.677,2.678-2.68,2.679-2.676-2.677Zm-25.1,25.1L205.3,77.67l-2.68,2.68-2.677-2.678Zm-25.1,25.1,2.677,2.677-2.679,2.68-2.677-2.678Z" fill="#393939" fill-rule="evenodd"/>
        <path id="Path_18215" data-name="Path 18215" d="M152.421,125.2l2.677,2.677-2.68,2.68-2.676-2.677Z" fill="#ffbd45" fill-rule="evenodd"/>
        <path id="Path_18216" data-name="Path 18216" d="M127.672,149.946l2.677,2.677-2.679,2.68-2.677-2.678Z" fill="#393939" fill-rule="evenodd"/>
        <path id="Path_18217" data-name="Path 18217" d="M350.79-73.485l2.676,2.677-2.679,2.68-2.677-2.678Z" fill="#a4a4a4" fill-rule="evenodd"/>
        <path id="Path_18218" data-name="Path 18218" d="M325.687-48.382l2.677,2.677-2.68,2.679L323.008-45.7Zm-25.1,25.1,2.677,2.677-2.68,2.68L297.9-20.6Zm-25.1,25.1L278.16,4.5l-2.679,2.68L272.8,4.5Z" fill="#393939" fill-rule="evenodd"/>
        <path id="Path_18219" data-name="Path 18219" d="M250.38,26.924l2.677,2.677-2.68,2.68L247.7,29.6Z" fill="#ff5f61" fill-rule="evenodd"/>
      </g>
      <g id="Group_7323" data-name="Group 7323">
        <path id="Path_18220" data-name="Path 18220" d="M252.158,74.321,254.836,77l-2.68,2.68L249.48,77Z" fill="#a4a4a4" fill-rule="evenodd"/>
        <path id="Path_18221" data-name="Path 18221" d="M227.056,99.423l2.677,2.677-2.679,2.68-2.677-2.677Z" fill="#0053ff" fill-rule="evenodd"/>
        <path id="Path_18222" data-name="Path 18222" d="M201.954,124.526l2.677,2.677-2.68,2.679-2.676-2.677Z" fill="#393939" fill-rule="evenodd"/>
        <path id="Path_18223" data-name="Path 18223" d="M176.852,149.628l2.677,2.677-2.68,2.68-2.677-2.678Z" fill="#a4a4a4" fill-rule="evenodd"/>
        <path id="Path_18224" data-name="Path 18224" d="M152.1,174.377l2.677,2.677-2.68,2.679-2.676-2.677Z" fill="#0053ff" fill-rule="evenodd"/>
        <path id="Path_18225" data-name="Path 18225" d="M375.573-48.7l2.677,2.676-2.679,2.68-2.677-2.677Z" fill="#393939" fill-rule="evenodd"/>
        <path id="Path_18226" data-name="Path 18226" d="M350.471-23.6l2.677,2.677-2.68,2.679-2.676-2.677Z" fill="#ffbd45" fill-rule="evenodd"/>
        <path id="Path_18227" data-name="Path 18227" d="M325.369,1.5l2.677,2.677-2.68,2.68-2.677-2.678Zm-25.1,25.1,2.678,2.677-2.68,2.68-2.677-2.678Zm-25.1,25.1,2.677,2.678-2.679,2.679-2.677-2.677Z" fill="#393939" fill-rule="evenodd"/>
      </g>
      <g id="Group_7324" data-name="Group 7324">
        <path id="Path_18228" data-name="Path 18228" d="M277.3,99.459l2.677,2.677-2.68,2.679-2.676-2.677Z" fill="#393939" fill-rule="evenodd"/>
        <path id="Path_18229" data-name="Path 18229" d="M252.194,124.561l2.677,2.677-2.68,2.68-2.676-2.678Z" fill="#ffbd45" fill-rule="evenodd"/>
        <path id="Path_18230" data-name="Path 18230" d="M227.091,149.663l2.678,2.677-2.68,2.68-2.677-2.678Z" fill="#ff5f61" fill-rule="evenodd"/>
        <path id="Path_18231" data-name="Path 18231" d="M201.99,174.766l2.676,2.677-2.679,2.679-2.677-2.677Zm-24.75,24.748,2.678,2.677-2.68,2.68-2.677-2.677ZM400.313-23.961l2.677,2.677-2.68,2.68-2.676-2.678Z" fill="#393939" fill-rule="evenodd"/>
        <path id="Path_18232" data-name="Path 18232" d="M375.21,1.141l2.678,2.677-2.68,2.68L372.531,3.82Z" fill="#0053ff" fill-rule="evenodd"/>
        <path id="Path_18233" data-name="Path 18233" d="M350.108,26.243l2.677,2.678L350.106,31.6l-2.677-2.677Zm-25.1,25.1,2.677,2.677L325,56.7l-2.676-2.678Z" fill="#393939" fill-rule="evenodd"/>
        <path id="Path_18234" data-name="Path 18234" d="M299.9,76.448l2.677,2.677-2.68,2.68-2.677-2.678Z" fill="#0053ff" fill-rule="evenodd"/>
      </g>
      <g id="Group_7332" data-name="Group 7332">
        <path id="Path_18235" data-name="Path 18235" d="M-193.76,121.4l2.676,2.677-2.679,2.68-2.677-2.678Z" fill="#393939" fill-rule="evenodd"/>
        <path id="Path_18236" data-name="Path 18236" d="M-218.863,146.5l2.677,2.677-2.68,2.68-2.676-2.678Z" fill="#0053ff" fill-rule="evenodd"/>
        <path id="Path_18237" data-name="Path 18237" d="M-243.965,171.606l2.677,2.678-2.68,2.679-2.677-2.677Zm-25.1,25.1,2.677,2.677-2.679,2.68-2.677-2.678Z" fill="#393939" fill-rule="evenodd"/>
        <path id="Path_18238" data-name="Path 18238" d="M-293.816,221.457l2.677,2.678-2.68,2.679-2.677-2.677Z" fill="#fff" fill-rule="evenodd" opacity="0.6"/>
        <path id="Path_18239" data-name="Path 18239" d="M-70.655-1.929-67.978.748l-2.679,2.68L-73.334.75Z" fill="#ffbd45" fill-rule="evenodd"/>
        <path id="Path_18240" data-name="Path 18240" d="M-95.757,23.173l2.677,2.678-2.68,2.679-2.676-2.677Z" fill="#393939" fill-rule="evenodd"/>
        <path id="Path_18241" data-name="Path 18241" d="M-120.86,48.276l2.678,2.677-2.68,2.679-2.677-2.677Z" fill="#a4a4a4" fill-rule="evenodd"/>
        <path id="Path_18242" data-name="Path 18242" d="M-145.962,73.378l2.677,2.677-2.679,2.68-2.677-2.678Zm-25.1,25.1,2.677,2.677-2.68,2.68-2.676-2.677Z" fill="#393939" fill-rule="evenodd"/>
        <path id="Path_18243" data-name="Path 18243" d="M-168.977,146.186l2.677,2.677-2.679,2.68-2.677-2.678Z" fill="#ff5f61" fill-rule="evenodd"/>
        <path id="Path_18244" data-name="Path 18244" d="M-194.079,171.288l2.677,2.677-2.68,2.68-2.676-2.678Z" fill="#393939" fill-rule="evenodd"/>
        <path id="Path_18245" data-name="Path 18245" d="M-219.181,196.39l2.677,2.678-2.68,2.679-2.677-2.677Z" fill="#a4a4a4" fill-rule="evenodd"/>
        <path id="Path_18246" data-name="Path 18246" d="M-244.284,221.493l2.678,2.677-2.68,2.68-2.677-2.678Zm-24.748,24.749,2.677,2.677-2.68,2.679-2.677-2.677ZM-45.87,22.855l2.676,2.677-2.679,2.68-2.677-2.678Zm-25.1,25.1,2.677,2.678-2.68,2.679-2.676-2.677Zm-25.1,25.1,2.677,2.677-2.68,2.68-2.677-2.678Z" fill="#393939" fill-rule="evenodd"/>
        <path id="Path_18247" data-name="Path 18247" d="M-121.178,98.162l2.677,2.677-2.679,2.68-2.677-2.678Z" fill="#ffbd45" fill-rule="evenodd"/>
        <path id="Path_18248" data-name="Path 18248" d="M-146.28,123.264l2.677,2.677-2.68,2.68-2.676-2.677Zm2.087,47.706,2.677,2.677-2.679,2.68-2.677-2.678Zm-25.1,25.1,2.677,2.677-2.679,2.68-2.677-2.677Zm-25.1,25.1,2.677,2.677-2.68,2.679-2.676-2.677Z" fill="#393939" fill-rule="evenodd"/>
        <path id="Path_18249" data-name="Path 18249" d="M-219.5,246.277l2.678,2.677-2.68,2.68-2.677-2.678Z" fill="#ffbd45" fill-rule="evenodd" opacity="0.5"/>
        <path id="Path_18250" data-name="Path 18250" d="M-244.248,271.026l2.677,2.677-2.68,2.679-2.676-2.677Z" fill="#393939" fill-rule="evenodd"/>
        <path id="Path_18251" data-name="Path 18251" d="M-21.087,47.64l2.677,2.676L-21.089,53l-2.677-2.677Z" fill="#a4a4a4" fill-rule="evenodd"/>
        <path id="Path_18252" data-name="Path 18252" d="M-46.189,72.742l2.677,2.677-2.68,2.679-2.676-2.677Zm-25.1,25.1,2.677,2.677-2.68,2.68-2.677-2.678Zm-25.1,25.1,2.678,2.677-2.68,2.68-2.677-2.678Z" fill="#393939" fill-rule="evenodd"/>
        <path id="Path_18253" data-name="Path 18253" d="M-121.5,148.048l2.677,2.678L-121.5,153.4l-2.677-2.677Z" fill="#ff5f61" fill-rule="evenodd"/>
        <g id="Group_7325" data-name="Group 7325">
          <path id="Path_18254" data-name="Path 18254" d="M-119.762,195.4l2.677,2.678-2.68,2.679-2.676-2.677Z" fill="#a4a4a4" fill-rule="evenodd"/>
          <path id="Path_18255" data-name="Path 18255" d="M-144.864,220.5l2.677,2.677-2.68,2.68-2.677-2.678Z" fill="#393939" fill-rule="evenodd"/>
          <path id="Path_18256" data-name="Path 18256" d="M-169.967,245.6l2.677,2.677-2.679,2.68-2.677-2.678Z" fill="#0053ff" fill-rule="evenodd"/>
          <path id="Path_18257" data-name="Path 18257" d="M-195.069,270.707l2.677,2.678-2.68,2.679-2.676-2.677Z" fill="#393939" fill-rule="evenodd"/>
          <path id="Path_18258" data-name="Path 18258" d="M-219.818,295.456l2.677,2.677-2.679,2.68-2.677-2.678Z" fill="#ff5f61" fill-rule="evenodd"/>
          <path id="Path_18259" data-name="Path 18259" d="M3.7,72.423,6.374,75.1,3.7,77.78,1.018,75.1Z" fill="#393939" fill-rule="evenodd"/>
          <path id="Path_18260" data-name="Path 18260" d="M-21.405,97.526l2.677,2.677-2.68,2.679-2.676-2.677Z" fill="#ffbd45" fill-rule="evenodd"/>
          <path id="Path_18261" data-name="Path 18261" d="M-46.507,122.628l2.677,2.677-2.68,2.68-2.676-2.678Zm-25.1,25.1,2.678,2.677-2.68,2.68-2.677-2.678Zm-25.1,25.1,2.677,2.677-2.679,2.679-2.677-2.677Z" fill="#393939" fill-rule="evenodd"/>
        </g>
        <g id="Group_7326" data-name="Group 7326">
          <path id="Path_18262" data-name="Path 18262" d="M-94.624,220.538l2.677,2.677-2.68,2.68-2.677-2.678Z" fill="#393939" fill-rule="evenodd"/>
          <path id="Path_18263" data-name="Path 18263" d="M-119.727,245.64l2.677,2.678L-119.729,251l-2.677-2.677Z" fill="#ffbd45" fill-rule="evenodd"/>
          <path id="Path_18264" data-name="Path 18264" d="M-144.829,270.743l2.677,2.677-2.68,2.68-2.676-2.678Zm-25.1,25.1,2.677,2.677-2.68,2.68-2.677-2.678Zm-24.749,24.749,2.677,2.677-2.68,2.68-2.676-2.678ZM28.392,97.118l2.677,2.677-2.679,2.68L25.713,99.8Z" fill="#393939" fill-rule="evenodd"/>
          <path id="Path_18265" data-name="Path 18265" d="M3.29,122.22,5.967,124.9l-2.68,2.679L.612,124.9Z" fill="#0053ff" fill-rule="evenodd"/>
          <path id="Path_18266" data-name="Path 18266" d="M-21.812,147.323-19.135,150l-2.68,2.68L-24.491,150Z" fill="#ff5f61" fill-rule="evenodd"/>
          <path id="Path_18267" data-name="Path 18267" d="M-46.915,172.425l2.678,2.677-2.68,2.68-2.677-2.678Z" fill="#393939" fill-rule="evenodd"/>
          <path id="Path_18268" data-name="Path 18268" d="M-72.017,197.528l2.677,2.677-2.679,2.679-2.677-2.677Z" fill="#0053ff" fill-rule="evenodd"/>
        </g>
        <g id="Group_7327" data-name="Group 7327">
          <path id="Path_18269" data-name="Path 18269" d="M-69.84,245.322-67.163,248l-2.68,2.68L-72.52,248Z" fill="#393939" fill-rule="evenodd"/>
          <path id="Path_18270" data-name="Path 18270" d="M-94.943,270.425l2.677,2.677-2.679,2.679-2.677-2.677Z" fill="#0053ff" fill-rule="evenodd"/>
          <path id="Path_18271" data-name="Path 18271" d="M-120.045,295.527l2.677,2.677-2.679,2.68-2.677-2.678Zm-25.1,25.1,2.677,2.676-2.68,2.68-2.676-2.678Z" fill="#393939" fill-rule="evenodd"/>
          <path id="Path_18272" data-name="Path 18272" d="M-169.9,345.378l2.677,2.677-2.68,2.68-2.676-2.678Z" fill="#0053ff" fill-rule="evenodd"/>
          <path id="Path_18273" data-name="Path 18273" d="M53.221,121.947l2.677,2.677-2.68,2.68-2.676-2.678Z" fill="#ff5f61" fill-rule="evenodd"/>
          <path id="Path_18274" data-name="Path 18274" d="M28.119,147.05l2.677,2.676-2.68,2.68-2.677-2.677Z" fill="#393939" fill-rule="evenodd"/>
          <path id="Path_18275" data-name="Path 18275" d="M3.016,172.152l2.678,2.677-2.68,2.679L.337,174.831Z" fill="#a4a4a4" fill-rule="evenodd"/>
          <path id="Path_18276" data-name="Path 18276" d="M-22.086,197.254l2.677,2.677-2.679,2.68-2.677-2.678Zm-25.1,25.1,2.677,2.677-2.68,2.68-2.676-2.678Z" fill="#393939" fill-rule="evenodd"/>
        </g>
        <g id="Group_7328" data-name="Group 7328">
          <path id="Path_18277" data-name="Path 18277" d="M-45.056,270.106l2.677,2.678-2.68,2.679-2.676-2.677Z" fill="#ff5f61" fill-rule="evenodd"/>
          <path id="Path_18278" data-name="Path 18278" d="M-70.159,295.209l2.678,2.677-2.68,2.679-2.677-2.677Z" fill="#393939" fill-rule="evenodd"/>
          <path id="Path_18279" data-name="Path 18279" d="M-95.26,320.311l2.676,2.677-2.679,2.68-2.677-2.678Z" fill="#a4a4a4" fill-rule="evenodd"/>
          <path id="Path_18280" data-name="Path 18280" d="M-120.363,345.413l2.677,2.677-2.68,2.68-2.676-2.677Z" fill="#ff5f61" fill-rule="evenodd"/>
          <path id="Path_18281" data-name="Path 18281" d="M-145.112,370.162l2.677,2.677-2.679,2.68-2.677-2.678ZM78,146.731l2.677,2.677L78,152.088l-2.677-2.678Zm-25.1,25.1,2.677,2.678L52.9,177.19l-2.676-2.677Zm-25.1,25.1,2.678,2.677-2.68,2.679-2.677-2.677Z" fill="#393939" fill-rule="evenodd"/>
          <path id="Path_18282" data-name="Path 18282" d="M2.7,222.038l2.677,2.677L2.7,227.395.019,224.717Z" fill="#ffbd45" fill-rule="evenodd"/>
          <path id="Path_18283" data-name="Path 18283" d="M-22.4,247.14l2.677,2.677-2.68,2.68-2.676-2.677Z" fill="#393939" fill-rule="evenodd"/>
        </g>
        <g id="Group_7329" data-name="Group 7329">
          <path id="Path_18284" data-name="Path 18284" d="M-20.272,294.89l2.677,2.678-2.68,2.679-2.676-2.677Zm-25.1,25.1,2.677,2.677-2.68,2.68-2.677-2.678Zm-25.1,25.1,2.677,2.677-2.679,2.68-2.677-2.678Z" fill="#393939" fill-rule="evenodd"/>
          <path id="Path_18285" data-name="Path 18285" d="M-95.579,370.2l2.677,2.677-2.68,2.68-2.676-2.677Z" fill="#ffbd45" fill-rule="evenodd"/>
          <path id="Path_18286" data-name="Path 18286" d="M-120.328,394.946l2.677,2.677-2.679,2.68-2.677-2.678Z" fill="#393939" fill-rule="evenodd"/>
          <path id="Path_18287" data-name="Path 18287" d="M102.79,171.515l2.676,2.677-2.679,2.68-2.677-2.678Z" fill="#a4a4a4" fill-rule="evenodd"/>
          <path id="Path_18288" data-name="Path 18288" d="M77.687,196.618l2.677,2.677-2.68,2.679L75.008,199.3Zm-25.1,25.1,2.677,2.677-2.68,2.68L49.9,224.4Zm-25.1,25.1,2.677,2.677-2.679,2.68L24.8,249.5Z" fill="#393939" fill-rule="evenodd"/>
          <path id="Path_18289" data-name="Path 18289" d="M2.38,271.924,5.057,274.6l-2.68,2.68L-.3,274.6Z" fill="#ff5f61" fill-rule="evenodd"/>
        </g>
        <g id="Group_7330" data-name="Group 7330">
          <path id="Path_18290" data-name="Path 18290" d="M4.158,319.321,6.836,322l-2.68,2.68L1.48,322Z" fill="#a4a4a4" fill-rule="evenodd"/>
          <path id="Path_18291" data-name="Path 18291" d="M-20.944,344.423l2.677,2.677-2.679,2.68-2.677-2.677Z" fill="#0053ff" fill-rule="evenodd"/>
          <path id="Path_18292" data-name="Path 18292" d="M-46.046,369.526l2.677,2.677-2.68,2.679-2.676-2.677Z" fill="#393939" fill-rule="evenodd"/>
          <path id="Path_18293" data-name="Path 18293" d="M-71.148,394.628l2.677,2.677-2.68,2.68-2.677-2.678Z" fill="#a4a4a4" fill-rule="evenodd"/>
          <path id="Path_18294" data-name="Path 18294" d="M-95.9,419.377l2.677,2.677-2.68,2.679-2.676-2.677Z" fill="#0053ff" fill-rule="evenodd"/>
          <path id="Path_18295" data-name="Path 18295" d="M127.573,196.3l2.677,2.676-2.679,2.68-2.677-2.677Z" fill="#393939" fill-rule="evenodd"/>
          <path id="Path_18296" data-name="Path 18296" d="M102.471,221.4l2.677,2.677-2.68,2.679-2.676-2.677Z" fill="#ffbd45" fill-rule="evenodd"/>
          <path id="Path_18297" data-name="Path 18297" d="M77.369,246.5l2.677,2.677-2.68,2.68-2.677-2.678Zm-25.1,25.1,2.678,2.677-2.68,2.68-2.677-2.678Zm-25.1,25.1,2.677,2.678-2.679,2.679-2.677-2.677Z" fill="#393939" fill-rule="evenodd"/>
        </g>
        <g id="Group_7331" data-name="Group 7331">
          <path id="Path_18298" data-name="Path 18298" d="M29.3,344.459l2.677,2.677-2.68,2.679-2.676-2.677Z" fill="#393939" fill-rule="evenodd"/>
          <path id="Path_18299" data-name="Path 18299" d="M4.194,369.561l2.677,2.677-2.68,2.68L1.515,372.24Z" fill="#ffbd45" fill-rule="evenodd"/>
          <path id="Path_18300" data-name="Path 18300" d="M-20.909,394.663l2.678,2.677-2.68,2.68-2.677-2.678Z" fill="#ff5f61" fill-rule="evenodd"/>
          <path id="Path_18301" data-name="Path 18301" d="M-46.01,419.766l2.676,2.677-2.679,2.679-2.677-2.677Zm-24.75,24.748,2.678,2.677-2.68,2.68-2.677-2.677ZM152.313,221.039l2.677,2.677-2.68,2.68-2.676-2.678Z" fill="#393939" fill-rule="evenodd"/>
          <path id="Path_18302" data-name="Path 18302" d="M127.21,246.141l2.678,2.677-2.68,2.68-2.677-2.678Z" fill="#0053ff" fill-rule="evenodd"/>
          <path id="Path_18303" data-name="Path 18303" d="M102.108,271.243l2.677,2.678-2.679,2.679-2.677-2.677Zm-25.1,25.1,2.677,2.677L77,301.7l-2.676-2.678Z" fill="#393939" fill-rule="evenodd"/>
          <path id="Path_18304" data-name="Path 18304" d="M51.9,321.448l2.677,2.677L51.9,326.8l-2.677-2.678Z" fill="#0053ff" fill-rule="evenodd"/>
        </g>
      </g>
    </g>
    <path id="Path_18345" data-name="Path 18345" d="M195.881,18c-48.305,0-54.368.211-73.34,1.075-18.935.867-31.86,3.865-43.169,8.263a87.1,87.1,0,0,0-31.508,20.51,87.313,87.313,0,0,0-20.529,31.5c-4.41,11.313-7.411,24.241-8.263,43.169C18.222,141.493,18,147.559,18,195.864s.215,54.348,1.075,73.321c.871,18.935,3.869,31.86,8.263,43.169a87.153,87.153,0,0,0,20.514,31.508,87.1,87.1,0,0,0,31.5,20.528c11.317,4.4,24.245,7.4,43.177,8.263,18.972.863,25.031,1.075,73.333,1.075s54.353-.211,73.325-1.075c18.935-.867,31.875-3.865,43.192-8.263a91.132,91.132,0,0,0,52.015-52.033c4.373-11.313,7.374-24.241,8.263-43.169.852-18.972,1.075-25.02,1.075-73.324s-.222-54.367-1.075-73.339c-.889-18.935-3.891-31.86-8.263-43.169a87.3,87.3,0,0,0-20.529-31.508,86.928,86.928,0,0,0-31.5-20.51c-11.339-4.4-24.271-7.4-43.207-8.263C250.185,18.211,244.145,18,195.825,18ZM179.924,50.053c4.736-.007,10.02,0,15.956,0,47.49,0,53.119.17,71.872,1.023,17.342.793,26.754,3.691,33.024,6.125a55.006,55.006,0,0,1,20.44,13.3,55.2,55.2,0,0,1,13.31,20.454c2.435,6.262,5.336,15.674,6.125,33.016.852,18.75,1.038,24.382,1.038,71.85s-.185,53.1-1.038,71.85c-.793,17.342-3.691,26.754-6.125,33.016a58.982,58.982,0,0,1-33.75,33.735c-6.262,2.446-15.682,5.336-33.024,6.129-18.75.852-24.382,1.037-71.872,1.037s-53.123-.185-71.873-1.037c-17.342-.8-26.754-3.7-33.027-6.133a55.091,55.091,0,0,1-20.455-13.3,55.126,55.126,0,0,1-13.31-20.443C54.781,294.411,51.88,285,51.09,267.658c-.852-18.75-1.023-24.382-1.023-71.879s.17-53.1,1.023-71.85c.793-17.342,3.691-26.754,6.125-33.023a55.109,55.109,0,0,1,13.31-20.454,55.2,55.2,0,0,1,20.455-13.31c6.27-2.446,15.685-5.336,33.027-6.133,16.408-.741,22.767-.964,55.917-1Zm110.9,29.533a21.34,21.34,0,1,0,0-.007Zm-94.943,24.938a91.331,91.331,0,1,0,91.327,91.341,91.345,91.345,0,0,0-91.327-91.341Zm0,32.053a59.288,59.288,0,1,1-59.289,59.288A59.289,59.289,0,0,1,195.881,136.576Z" transform="translate(-101.63 1688.136)" fill="url(#linear-gradient)"/>
  </g>
</svg>
