<svg xmlns="http://www.w3.org/2000/svg" xmlns:xlink="http://www.w3.org/1999/xlink" width="397.728" height="397.728" viewBox="0 0 397.728 397.728">
  <defs>
    <linearGradient id="linear-gradient" y1="1" x2="1" gradientUnits="objectBoundingBox">
      <stop offset="0" stop-color="#fd5"/>
      <stop offset="0.031" stop-color="#fd5"/>
      <stop offset="0.27" stop-color="#ff543e"/>
      <stop offset="0.653" stop-color="#d63f8e"/>
      <stop offset="1" stop-color="#3771c8"/>
    </linearGradient>
  </defs>
  <path id="Path_18345" data-name="Path 18345" d="M195.881,18c-48.305,0-54.368.211-73.34,1.075-18.935.867-31.86,3.865-43.169,8.263a87.1,87.1,0,0,0-31.508,20.51,87.313,87.313,0,0,0-20.529,31.5c-4.41,11.313-7.411,24.241-8.263,43.169C18.222,141.493,18,147.559,18,195.864s.215,54.348,1.075,73.321c.871,18.935,3.869,31.86,8.263,43.169a87.153,87.153,0,0,0,20.514,31.508,87.1,87.1,0,0,0,31.5,20.528c11.317,4.4,24.245,7.4,43.177,8.263,18.972.863,25.031,1.075,73.333,1.075s54.353-.211,73.325-1.075c18.935-.867,31.875-3.865,43.192-8.263a91.132,91.132,0,0,0,52.015-52.033c4.373-11.313,7.374-24.241,8.263-43.169.852-18.972,1.075-25.02,1.075-73.324s-.222-54.367-1.075-73.339c-.889-18.935-3.891-31.86-8.263-43.169a87.3,87.3,0,0,0-20.529-31.508,86.928,86.928,0,0,0-31.5-20.51c-11.339-4.4-24.271-7.4-43.207-8.263C250.185,18.211,244.145,18,195.825,18ZM179.924,50.053c4.736-.007,10.02,0,15.956,0,47.49,0,53.119.17,71.872,1.023,17.342.793,26.754,3.691,33.024,6.125a55.006,55.006,0,0,1,20.44,13.3,55.2,55.2,0,0,1,13.31,20.454c2.435,6.262,5.336,15.674,6.125,33.016.852,18.75,1.038,24.382,1.038,71.85s-.185,53.1-1.038,71.85c-.793,17.342-3.691,26.754-6.125,33.016a58.982,58.982,0,0,1-33.75,33.735c-6.262,2.446-15.682,5.336-33.024,6.129-18.75.852-24.382,1.037-71.872,1.037s-53.123-.185-71.873-1.037c-17.342-.8-26.754-3.7-33.027-6.133a55.091,55.091,0,0,1-20.455-13.3,55.126,55.126,0,0,1-13.31-20.443C54.781,294.411,51.88,285,51.09,267.658c-.852-18.75-1.023-24.382-1.023-71.879s.17-53.1,1.023-71.85c.793-17.342,3.691-26.754,6.125-33.023a55.109,55.109,0,0,1,13.31-20.454,55.2,55.2,0,0,1,20.455-13.31c6.27-2.446,15.685-5.336,33.027-6.133,16.408-.741,22.767-.964,55.917-1Zm110.9,29.533a21.34,21.34,0,1,0,0-.007Zm-94.943,24.938a91.331,91.331,0,1,0,91.327,91.341,91.345,91.345,0,0,0-91.327-91.341Zm0,32.053a59.288,59.288,0,1,1-59.289,59.288A59.289,59.289,0,0,1,195.881,136.576Z" transform="translate(3 3)" fill="url(#linear-gradient)"/>
</svg>
