<svg xmlns="http://www.w3.org/2000/svg" width="24.964" height="25.014" viewBox="0 0 24.964 25.014"><defs><style>.a{fill:#fff;}</style></defs><path class="a" d="M-24.721-29.469a3.3,3.3,0,0,1,2.927-.39q2.781.683,3.708.927a10.915,10.915,0,0,0-7.171,3.073,13.513,13.513,0,0,0-2,2.537q.293-1.317.976-3.951A3.266,3.266,0,0,1-24.721-29.469Zm13.269,2.2q.537.146,1.829.463t2.025.463a3.409,3.409,0,0,1,2.025,1.512,3.507,3.507,0,0,1,.561,2.488q-.146.634-.488,2.025T-5.988-18.2a5.349,5.349,0,0,1-.1-.585,5.35,5.35,0,0,0-.1-.585,11.581,11.581,0,0,0-1.781-4.561A10.366,10.366,0,0,0-11.451-27.274Zm-18.44,14.44q.1-.488.512-2.025t.561-2.366a13.639,13.639,0,0,0,.439,2.732,10.72,10.72,0,0,0,5.317,6.83q-.683-.146-2.073-.488t-2.073-.537A3.516,3.516,0,0,1-29.7-10.834,4.1,4.1,0,0,1-29.892-12.834Zm22.245,1.171-1.024,4.1a3.575,3.575,0,0,1-1.61,2.025,3.143,3.143,0,0,1-2.537.415q-.732-.2-2.171-.537T-17.11-6.15a11.167,11.167,0,0,0,6.83-2.537A11.394,11.394,0,0,0-7.646-11.663ZM-18.818-27.957a10.222,10.222,0,0,1,5.854.878,10.276,10.276,0,0,1,5.122,5.22,10.159,10.159,0,0,1,.732,6.391,10.41,10.41,0,0,1-3.756,6.1,10.082,10.082,0,0,1-6.391,2.293A9.782,9.782,0,0,1-23.5-9.029a9.942,9.942,0,0,1-4.1-6.1,10.167,10.167,0,0,1,1.073-7.659,10.628,10.628,0,0,1,3.269-3.488A9.965,9.965,0,0,1-18.818-27.957Zm-2.049,2.927a2.592,2.592,0,0,0-1.61,1.122,2.744,2.744,0,0,0-.488,2.146,2.641,2.641,0,0,0,1.122,1.854,2.646,2.646,0,0,0,2.1.585,2.708,2.708,0,0,0,1.9-1.024,2.736,2.736,0,0,0,.683-2,2.823,2.823,0,0,0-.829-1.951A2.634,2.634,0,0,0-20.867-25.03Zm7.22,1.512a2.737,2.737,0,0,0-1.537,1.073,2.667,2.667,0,0,0-.561,1.756,2.751,2.751,0,0,0,.829,1.976,2.767,2.767,0,0,0,1.9.9,2.747,2.747,0,0,0,2.634-1.22,2.936,2.936,0,0,0,.244-2.878,2.7,2.7,0,0,0-1.439-1.464A2.719,2.719,0,0,0-13.647-23.517Zm-4.1,4.732a1.12,1.12,0,0,0-.829.927,1.217,1.217,0,0,0,.146.878,1.034,1.034,0,0,0,.732.537,1.121,1.121,0,0,0,1.073-.293,1.077,1.077,0,0,0,.39-1.024,1.116,1.116,0,0,0-.512-.854A1.156,1.156,0,0,0-17.745-18.785Zm-4.976,1.464a2.5,2.5,0,0,0-1.464.951,2.946,2.946,0,0,0-.634,1.683A2.667,2.667,0,0,0-23.4-12.053a2.815,2.815,0,0,0,2.634.244A2.653,2.653,0,0,0-19.208-13.3a2.8,2.8,0,0,0,.1-2.171,2.644,2.644,0,0,0-1.439-1.659A2.83,2.83,0,0,0-22.72-17.322Zm7.366,1.464a2.831,2.831,0,0,0-1.561,1.146,2.906,2.906,0,0,0-.537,1.829,2.634,2.634,0,0,0,.854,1.951,2.7,2.7,0,0,0,1.927.829A2.907,2.907,0,0,0-12.7-10.76a2.655,2.655,0,0,0,1.049-1.781,2.552,2.552,0,0,0-1.122-2.781A2.735,2.735,0,0,0-15.354-15.858Z" transform="translate(29.936 30.033)"/></svg>