<svg xmlns="http://www.w3.org/2000/svg" width="24.977" height="24.977" viewBox="0 0 24.977 24.977"><defs><style>.a{fill:#fff;}</style></defs><path class="a" d="M-9.316-24.146a1.4,1.4,0,0,1-.439,1.024,1.46,1.46,0,0,1-1.073.439,1.46,1.46,0,0,1-1.073-.439,1.4,1.4,0,0,1-.439-1.024,1.46,1.46,0,0,1,.439-1.073,1.46,1.46,0,0,1,1.073-.439,1.46,1.46,0,0,1,1.073.439A1.46,1.46,0,0,1-9.316-24.146Zm-8.2.244A6.175,6.175,0,0,0-20-23.414a6.641,6.641,0,0,0-2.049,1.366A6.641,6.641,0,0,0-23.414-20a6.175,6.175,0,0,0-.488,2.488,6.175,6.175,0,0,0,.488,2.488,6.641,6.641,0,0,0,1.366,2.049A6.641,6.641,0,0,0-20-11.609a6.122,6.122,0,0,0,2.488.537,6.234,6.234,0,0,0,2.537-.537,6.8,6.8,0,0,0,2-1.366,6.641,6.641,0,0,0,1.366-2.049,6.122,6.122,0,0,0,.537-2.488A6.122,6.122,0,0,0-11.609-20a6.641,6.641,0,0,0-1.366-2.049,6.8,6.8,0,0,0-2-1.366A6.3,6.3,0,0,0-17.511-23.9Zm0,10.586a4.211,4.211,0,0,1-2.927-1.22,4.049,4.049,0,0,1-1.22-2.976,3.89,3.89,0,0,1,1.22-2.927,3.992,3.992,0,0,1,2.927-1.22,4.049,4.049,0,0,1,2.976,1.22,3.992,3.992,0,0,1,1.22,2.927,4.266,4.266,0,0,1-1.22,2.976A4.266,4.266,0,0,1-17.511-13.316Zm0-14.44h3.317q.39,0,1.756.1a5.547,5.547,0,0,1,1.415.146,4.536,4.536,0,0,1,.878.293,4.277,4.277,0,0,1,.781.39q.585.439.683.537a3.678,3.678,0,0,1,.537.634l.39.781A6.707,6.707,0,0,0-7.511-24a11.453,11.453,0,0,1,.2,1.464q0,.341.024.927t.024.829v6.537q0,.244-.024.854t-.024.951a11.211,11.211,0,0,1-.2,1.415,6.707,6.707,0,0,0-.244.878q-.049.1-.1.22a1.083,1.083,0,0,1-.1.2,1.594,1.594,0,0,0-.1.171l-.1.2q-.146.2-.537.683-.634.488-.683.537l-.781.39a1.6,1.6,0,0,0-.39.1q-.293.1-.488.146a5.547,5.547,0,0,1-1.415.146q-.683.049-1.8.049-.1,0-1.2.024t-2.073.024q-.976,0-2.049-.024t-1.22-.024q-1.122,0-1.756-.049A5.793,5.793,0,0,1-24-7.511a6.708,6.708,0,0,0-.878-.244q-.1-.049-.22-.1a1.083,1.083,0,0,1-.2-.1,1.6,1.6,0,0,0-.171-.1l-.2-.1a5.985,5.985,0,0,1-.634-.537q-.1-.1-.537-.683a4.276,4.276,0,0,1-.39-.781,6.88,6.88,0,0,1-.293-.878,5.547,5.547,0,0,1-.146-1.415q-.049-.683-.049-1.8V-20.78q0-1.122.049-1.756A5.793,5.793,0,0,1-27.512-24a4.536,4.536,0,0,1,.293-.878,4.276,4.276,0,0,1,.39-.781,3.246,3.246,0,0,1,.537-.634,3.246,3.246,0,0,1,.634-.537,4.277,4.277,0,0,1,.781-.39A6.88,6.88,0,0,1-24-27.512a5.793,5.793,0,0,1,1.464-.146q1.268-.1,1.756-.1Zm0-2.244h-3.317q-.537,0-1.8.1a9.044,9.044,0,0,0-1.756.2,8.639,8.639,0,0,0-1.268.39,3.954,3.954,0,0,0-1.171.585A4.347,4.347,0,0,0-27.9-27.9a4.347,4.347,0,0,0-.829,1.073,3.954,3.954,0,0,0-.585,1.171,8.639,8.639,0,0,0-.39,1.268,9.044,9.044,0,0,0-.2,1.756q-.1,1.268-.1,1.8v6.683q0,.439.1,1.8a8.854,8.854,0,0,0,.2,1.707,6.47,6.47,0,0,0,.39,1.317,5.207,5.207,0,0,0,.585,1.122A5.264,5.264,0,0,0-27.9-7.12a6.372,6.372,0,0,0,1.073.878q.537.293,1.171.585a6.944,6.944,0,0,0,1.268.341,11.953,11.953,0,0,0,1.756.244q.341,0,.951.024t.854.024h6.683q.244,0,.854-.024t.951-.024a11.965,11.965,0,0,0,1.707-.244q.878-.2,1.317-.341.781-.39,1.122-.585A6.373,6.373,0,0,0-7.12-7.12a8.673,8.673,0,0,0,.878-1.073q.2-.341.585-1.122.146-.439.341-1.317a11.966,11.966,0,0,0,.244-1.707q0-.341.024-.951t.024-.854v-6.683q0-.244-.024-.854t-.024-.951a11.954,11.954,0,0,0-.244-1.756,6.944,6.944,0,0,0-.341-1.268q-.293-.634-.585-1.171A6.373,6.373,0,0,0-7.12-27.9a4.347,4.347,0,0,0-1.073-.829,5.207,5.207,0,0,0-1.122-.585,7.4,7.4,0,0,0-1.317-.39,8.854,8.854,0,0,0-1.707-.2q-1.366-.1-1.8-.1Z" transform="translate(30 30)"/></svg>