<svg xmlns="http://www.w3.org/2000/svg" width="24.977" height="24.977" viewBox="0 0 24.977 24.977"><defs><style>.a{fill:#fff;}</style></defs><path class="a" d="M-17.511-30a12.442,12.442,0,0,0-4.83.976,13.269,13.269,0,0,0-4,2.683,12.539,12.539,0,0,0-2.683,4A12.442,12.442,0,0,0-30-17.511a11.647,11.647,0,0,0,.585,3.708,11.3,11.3,0,0,0,1.512,3.22A11.178,11.178,0,0,0-25.561-7.95a12.168,12.168,0,0,0,3.025,1.9V-7.462a8.377,8.377,0,0,1,.244-1.464q.2-.927.341-1.512.146-.732.537-2.293.049-.2.488-2.1l.244-.878-.2-.585a13.436,13.436,0,0,1-.2-1.415A3.505,3.505,0,0,1-20.39-20a1.971,1.971,0,0,1,1.707-.927,1.462,1.462,0,0,1,1.268.537,2.14,2.14,0,0,1,.439,1.317,5.964,5.964,0,0,1-.439,2.049q-.244.683-.683,2.39a1.76,1.76,0,0,0,.39,1.707,1.953,1.953,0,0,0,1.561.683,2.779,2.779,0,0,0,1.659-.488,5.62,5.62,0,0,0,1.22-1.464,8.516,8.516,0,0,0,.829-2.1,11.049,11.049,0,0,0,.293-2.586,4.847,4.847,0,0,0-1.366-3.415,5.111,5.111,0,0,0-3.854-1.366,5.881,5.881,0,0,0-2.537.488,6.258,6.258,0,0,0-1.951,1.317,5.469,5.469,0,0,0-1.22,1.9,6,6,0,0,0-.439,2.293,3.913,3.913,0,0,0,.244,1.415,2.906,2.906,0,0,0,.585,1.024,3.19,3.19,0,0,1,.2.341v.341q-.049.146-.146.537a3.186,3.186,0,0,1-.146.488.457.457,0,0,1-.244.293.322.322,0,0,1-.341,0,3.42,3.42,0,0,1-1.951-1.854,6.349,6.349,0,0,1-.634-2.878,7.129,7.129,0,0,1,.585-2.732,7.145,7.145,0,0,1,1.659-2.537,9.04,9.04,0,0,1,2.781-1.854,9.759,9.759,0,0,1,3.9-.683,8.731,8.731,0,0,1,3.269.585,8.486,8.486,0,0,1,2.488,1.561,7.557,7.557,0,0,1,1.61,2.293,7.305,7.305,0,0,1,.537,2.683,11.1,11.1,0,0,1-.488,3.415,8.938,8.938,0,0,1-1.366,2.732,7.071,7.071,0,0,1-2.146,1.756,5.674,5.674,0,0,1-2.732.683,3.761,3.761,0,0,1-1.854-.488,3.018,3.018,0,0,1-1.22-1.073l-.39,1.512q-.146.634-.488,1.9a8.639,8.639,0,0,1-.537,1.415q-.488.878-.683,1.268a11.233,11.233,0,0,0,1.707.39q1.171.1,1.8.1A12.562,12.562,0,0,0-12.633-6,12.344,12.344,0,0,0-8.682-8.682,12.344,12.344,0,0,0-6-12.633a12.562,12.562,0,0,0,.976-4.878A12.442,12.442,0,0,0-6-22.341a11.87,11.87,0,0,0-2.683-4,12.344,12.344,0,0,0-3.951-2.683A12.562,12.562,0,0,0-17.511-30Z" transform="translate(30 30)"/></svg>