<svg xmlns="http://www.w3.org/2000/svg" width="24.928" height="24.977" viewBox="0 0 24.928 24.977"><defs><style>.a{fill:#fff;}</style></defs><path class="a" d="M-5.257-30h.1q-.781.829-2.366,2.439t-2.366,2.39q-7.22,7.22-10.781,10.879-1.561-.781-4.659-2.415t-4.61-2.415q4.586-2.049,24.489-10.732A.764.764,0,0,0-5.257-30Zm.1.2h.049l.1.049v.1h-.1q-.341,1.854-1.122,5.464-.537,2.732-1.683,8.122T-9.647-8l-9.22-4.83q8.2-10.049,13.513-16.635l.1-.146A.281.281,0,0,0-5.159-29.8ZM-22.087-12.779q.293.146,1.39.8t1.732,1q.1.049.683.39t.878.537q-3.025,3.317-4.537,5.025Z" transform="translate(29.941 30)"/></svg>