<svg xmlns="http://www.w3.org/2000/svg" width="24.977" height="20.45" viewBox="0 0 24.977 20.45"><defs><style>.a{fill:#fff;}</style></defs><path class="a" d="M-7.657-22.13a11.783,11.783,0,0,1-.049,2.439,11.882,11.882,0,0,1-.439,2.1q-.341,1.073-.585,1.707-.2.39-.488,1.073-.049.1-.171.293a4.732,4.732,0,0,0-.268.512,5.9,5.9,0,0,1-.293.561A11.468,11.468,0,0,1-11.609-11.4,16.247,16.247,0,0,1-14.34-9.154a15.043,15.043,0,0,1-4.1,1.8,14.139,14.139,0,0,1-4.537.488,19.136,19.136,0,0,1-3.708-.732,14.385,14.385,0,0,1-2.439-1.073L-30-9.2a9.662,9.662,0,0,0,3.073-.1,9.912,9.912,0,0,0,2.342-.781,14.181,14.181,0,0,0,1.512-.829l.488-.439q-2.878-.293-3.756-1.9l-.878-1.61a4.48,4.48,0,0,0,1.659,0l.439-.2a5.75,5.75,0,0,1-2.39-1.317,4.794,4.794,0,0,1-1.122-1.659,3.728,3.728,0,0,1-.39-1.415v-.634a5.344,5.344,0,0,0,1.707.585l.488-.049a5.086,5.086,0,0,1-1.8-2.342,4.912,4.912,0,0,1-.341-2.2,3.972,3.972,0,0,1,.39-1.61l.293-.634a16.124,16.124,0,0,0,3.708,3.269A18.42,18.42,0,0,0-21.219-21.5a9.269,9.269,0,0,0,2.439.488l.976.049a10.719,10.719,0,0,1-.049-1.268,5.54,5.54,0,0,1,.341-1.659,5.262,5.262,0,0,1,.927-1.659,4.806,4.806,0,0,1,1.9-1.317,4.428,4.428,0,0,1,2.293-.39,5.282,5.282,0,0,1,1.8.488,6.041,6.041,0,0,1,1.22.732l.439.39a6.525,6.525,0,0,0,2.293-.683l1.268-.634a3.712,3.712,0,0,1-1.366,2l-1.22.927a6.375,6.375,0,0,0,1.9-.439l1.024-.39a5.434,5.434,0,0,1-1.415,1.61Z" transform="translate(30 27.284)"/></svg>